<svg height="661.15246" viewBox="0 0 985.58672 661.15246" width="985.58672"
    xmlns="http://www.w3.org/2000/svg">
    <path d="m27.52452 640.30491h929v2h-929z" fill="#3f3d56" />
    <path d="m634.23122 123.65246h1.99988v928.99999h-1.99988z" fill="#3f3d56"
        transform="matrix(.38947715 -.92103613 .92103613 .38947715 -261.09314 815.30387)" />
    <path d="m27.52452 277.30491h929v2h-929z" fill="#3f3d56" />
    <path
        d="m937.73116 449.65246a322.06753 322.06753 0 0 1 -93.73 228.11q-4.93506 4.965-10.09 9.7-6.21 5.73-12.74 11.11c-.83.69-1.66 1.37-2.5 2.04a313.73111 313.73111 0 0 1 -55.56 36.03c-1.17.59-2.34 1.18-3.52 1.76-1.87.92-3.76 1.82-5.65 2.7a311.18017 311.18017 0 0 1 -223.25 15.15c-129.07-40.06-222.96-162.17-222.96-306.6 0-177.01 141.03-320.5 315-320.5s315 143.48999 315 320.5z"
        fill="#6c63ff" transform="translate(-107.20664 -128.84754)" />
    <path
        d="m692.86575 382.41884.25017-.00978-.98654-2.166a60.49185 60.49185 0 0 0 -4.04939-8.8911l-28.93467-63.53026a11.44275 11.44275 0 0 0 -10.60414-6.6983l-36.64368.61046a11.44267 11.44267 0 0 0 -10.666 7.82629l-23.03631 69.18794a60.396 60.396 0 0 0 -1.97059 5.9183l-.78211 2.34909.18367-.00718a60.852 60.852 0 1 0 117.23963-4.58946z"
        fill="#3f3d56" transform="translate(-107.20664 -128.84754)" />
    <path d="m587.4201 348.24504h64.07988v1.32275h-64.07988z" fill="#6c63ff"
        transform="matrix(.17994386 -.98367688 .98367688 .17994386 57.5742 766.62382)" />
    <path d="m643.92938 316.44781h1.32275v64.07988h-1.32275z" fill="#6c63ff"
        transform="matrix(.97717793 -.21242242 .21242242 .97717793 -166.52235 16.03118)" />
    <path
        d="m607.90381 270.709 46.95475-.78223a1.32285 1.32285 0 0 1 .04406 2.64534l-46.95474.78223a1.32285 1.32285 0 1 1 -.04407-2.64534z"
        fill="#3f3d56" transform="translate(-107.20664 -128.84754)" />
    <path
        d="m608.39973 280.62355 46.95475-.78223a1.32285 1.32285 0 1 1 .04407 2.64534l-46.95475.78223a1.32285 1.32285 0 0 1 -.04407-2.64534z"
        fill="#3f3d56" transform="translate(-107.20664 -128.84754)" />
    <path
        d="m608.89566 290.53806 46.95475-.78223a1.32285 1.32285 0 0 1 .04407 2.64534l-46.95475.78223a1.32285 1.32285 0 0 1 -.04407-2.64534z"
        fill="#3f3d56" transform="translate(-107.20664 -128.84754)" />
    <path
        d="m631.224 260.88358c-9.31374.15516-16.77755 5.47176-16.67088 11.875l33.72806-.56188c-.10666-6.40325-7.74343-11.46828-17.05718-11.31312z"
        fill="#3f3d56" transform="translate(-107.20664 -128.84754)" />
    <path
        d="m636.41386 389.61354a8.14933 8.14933 0 0 1 4.94589 2.11341c.34849.2891.69141.59218 1.0353.89589a10.33034 10.33034 0 0 0 3.89692 2.54982c3.23184.88191 6.42224-1.67357 9.11517-4.28989l.92216.94849c-2.96056 2.87725-6.50869 5.67481-10.38559 4.61791a11.46391 11.46391 0 0 1 -4.42461-2.835c-.33341-.29484-.66616-.58873-1.00385-.86929-1.1051-.91669-3.24-2.34305-5.138-1.6034a6.44192 6.44192 0 0 0 -2.05951 1.58861 12.31293 12.31293 0 0 1 -1.4295 1.2871 6.47841 6.47841 0 0 1 -7.17883.21359 12.7955 12.7955 0 0 1 -1.12388-.84242 4.68807 4.68807 0 0 0 -2.12357-1.20916c-1.1241-.15764-2.14565.64493-3.22844 1.49342a6.8402 6.8402 0 0 1 -3.743 1.85957c-.04776.00241-.09618.00418-.144.005-2.6363.04392-4.30818-2.59271-5.34225-4.59719l1.176-.60617c1.40525 2.72473 2.76 3.96706 4.24042 3.87715a5.81555 5.81555 0 0 0 2.99639-1.579c1.25176-.98212 2.54755-1.9976 4.22722-1.763a5.72061 5.72061 0 0 1 2.77362 1.491 11.65548 11.65548 0 0 0 1.00619.75749 5.19806 5.19806 0 0 0 5.68469-.169 11.16589 11.16589 0 0 0 1.27346-1.15335 7.51531 7.51531 0 0 1 2.51388-1.88593 4.34872 4.34872 0 0 1 1.51772-.29565z"
        fill="#6c63ff" transform="translate(-107.20664 -128.84754)" />
    <path d="m524.13395 0h1.37481v131.98203h-1.37481z" fill="#3f3d56" />
    <g transform="translate(-107.20664 -128.84754)">
        <path
            d="m1047.62723 357.51779c-8.38218 30.98558-37.093 50.17572-37.093 50.17572s-15.12066-31.04739-6.73848-62.033 37.093-50.17573 37.093-50.17573 15.12067 31.04743 6.73848 62.03301z"
            fill="#6c63ff" />
        <path
            d="m971.37277 357.51779c8.38218 30.98558 37.093 50.17572 37.093 50.17572s15.12066-31.04739 6.73848-62.033-37.093-50.17573-37.093-50.17573-15.12067 31.04743-6.73848 62.03301z"
            fill="#6c63ff" />
        <path
            d="m983.68979 350.85866c23.00083 22.39034 25.81021 56.80959 25.81021 56.80959s-34.48232-1.88275-57.48315-24.27313-25.81021-56.80959-25.81021-56.80959 34.48236 1.88275 57.48315 24.27313z"
            fill="#3f3d56" />
        <path
            d="m1035.31021 350.85866c-23.00083 22.39034-25.81021 56.80959-25.81021 56.80959s34.48232-1.88275 57.48315-24.27313 25.81021-56.80959 25.81021-56.80959-34.48236 1.88275-57.48315 24.27313z"
            fill="#3f3d56" />
        <path
            d="m228.62723 719.51779c-8.38218 30.98558-37.093 50.17572-37.093 50.17572s-15.12066-31.04739-6.73848-62.033 37.093-50.17573 37.093-50.17573 15.12067 31.04743 6.73848 62.03301z"
            fill="#6c63ff" />
        <path
            d="m152.37277 719.51779c8.38218 30.98558 37.093 50.17572 37.093 50.17572s15.12066-31.04739 6.73848-62.033-37.093-50.17573-37.093-50.17573-15.12067 31.04743-6.73848 62.03301z"
            fill="#6c63ff" />
        <path
            d="m164.68979 712.85866c23.00083 22.39034 25.81021 56.80959 25.81021 56.80959s-34.48232-1.88275-57.48315-24.27313-25.81021-56.80959-25.81021-56.80959 34.48236 1.88275 57.48315 24.27313z"
            fill="#3f3d56" />
        <path
            d="m216.31021 712.85866c-23.00083 22.39034-25.81021 56.80959-25.81021 56.80959s34.48232-1.88275 57.48315-24.27313 25.81021-56.80959 25.81021-56.80959-34.48236 1.88275-57.48315 24.27313z"
            fill="#3f3d56" />
    </g>
    <circle cx="670.34203" cy="285.18876" fill="#2f2e41" r="19.23438" />
    <path
        d="m756.9404 405.793a19.234 19.234 0 0 1 17.1736-19.12068 19.23441 19.23441 0 1 0 0 38.24135 19.234 19.234 0 0 1 -17.1736-19.12067z"
        fill="#2f2e41" transform="translate(-107.20664 -128.84754)" />
    <path d="m758.31428 414.0363s-2.98726 13.73885 15.67993 19.23439z" fill="#6c63ff"
        transform="translate(-107.20664 -128.84754)" />
    <circle cx="678.29697" cy="351.26505" fill="#2f2e41" r="64.57257" />
    <path
        d="m821.17117 698.57244c-.83.69-1.66 1.37-2.5 2.04a313.73111 313.73111 0 0 1 -55.56 36.03c-1.17.59-2.34 1.18-3.52 1.76-1.87.92-3.76 1.82-5.65 2.7l-33.1-11.03.38-7.93v-.03l1.44-30.24.49-10.34z"
        fill="#a0616a" transform="translate(-107.20664 -128.84754)" />
    <path
        d="m759.59115 738.40246c-1.87.92-3.76 1.82-5.65 2.7a306.938 306.938 0 0 1 -39.91 15.37 2.22371 2.22371 0 0 1 -.12-.62l6.93-33.87006.38.16z"
        fill="#2f2e41" transform="translate(-107.20664 -128.84754)" />
    <circle cx="662.17842" cy="377.01184" fill="#a0616a" r="42.76177" />
    <path
        d="m804.05677 508.17083s6.93434 34.67171 19.6473 42.76178l-70.49914 83.2121-26.58164-25.42592 19.6473-34.67171s21.95875-12.713 15.02441-30.04881z"
        fill="#a0616a" transform="translate(-107.20664 -128.84754)" />
    <path
        d="m887.72115 623.00243a320.87478 320.87478 0 0 1 -43.72 54.76c-.71-15.5-2.25-28.28-5.27-32.06a.031.031 0 0 1 -.02-.01l-36.97-11.55s8.09-76.28 27.74-79.74c0 0 2.85.57995 7.28 1.92 14.28 4.3 44.93994 16.42 49.35 41.99a141.92617 141.92617 0 0 1 1.61 24.69z"
        fill="#a0616a" transform="translate(-107.20664 -128.84754)" />
    <path
        d="m746.27059 574.04708s-34.67171-1.15572-56.63046 26.58164-75.122 48.5404-75.122 48.5404l-132.90825 52.00756s-24.2702-42.76177-39.2946-27.73737 27.73736 53.16329 47.38466 48.5404 138.68684-40.45033 138.68684-40.45033l94.76934-42.76178z"
        fill="#a0616a" transform="translate(-107.20664 -128.84754)" />
    <path
        d="m838.73116 645.70244-4.82 41.76q-6.21 5.73-12.74 11.11c-.83.69-1.66 1.37-2.5 2.04-33.37-10.23-85.66-9.09-96.01-8.74-1.18.03-1.82.06-1.82.06l-1.15-24.27c-11.09-3.69-14.73005-11.76-14.83-20.64-.17-16.1 11.36-34.84 11.36-34.84 2.07-2.07 17.54-31.4 20.74-37.48.37-.71.58-1.1.58-1.1l13.87-3.46s-.04.11-.12.31c-1.24 3.47-12.02 34.86 6.54 35.95 18.26 1.07995 57.98-50.2 63.45-57.39.41-.54.63-.83.63-.83l15.03 8.09c-.06.02-.12.03-.18.05-9.18005 2.55-17.68005 24.66-17.68005 24.66-23.97 42.24 18.58 64.18006 19.63 64.71a.031.031 0 0 0 .02005.01z"
        fill="#d0cde1" transform="translate(-107.20664 -128.84754)" />
    <path
        d="m771.70821 455.66576c-22.76326 0-41.21653 10.76441-41.21653 24.043 0 5.9414 3.70925 11.37145 9.832 15.56639l7.93463-5.7492-2.15776 9.00681c.89532.41492 1.80951.8165 2.763 1.18764l11.85353-13.82916v16.98916a69.19156 69.19156 0 0 0 10.99107.87134c22.76327 0 41.21654-10.76441 41.21654-24.043s-18.45321-24.04298-41.21648-24.04298z"
        fill="#2f2e41" transform="translate(-107.20664 -128.84754)" />
    <circle cx="748.93123" cy="315.23757" fill="#2f2e41" r="19.23438" />
    <path
        d="m835.52961 435.84181a19.234 19.234 0 0 1 17.17355-19.12068 19.42935 19.42935 0 0 0 -2.06082-.1137 19.2344 19.2344 0 1 0 2.06082 38.35505 19.234 19.234 0 0 1 -17.17355-19.12067z"
        fill="#2f2e41" transform="translate(-107.20664 -128.84754)" />
    <path d="m836.90349 444.08512s-2.98727 13.73884 15.67992 19.23438z" fill="#6c63ff"
        transform="translate(-107.20664 -128.84754)" />
    <ellipse cx="706.67378" cy="373.54467" fill="#a0616a" rx="3.33876" ry="7.5122" />
    <path
        d="m445.388 531.45408-50.67715 12.27814-.16511.03931-5.50879 4.98725-1.58554 1.43356-3.39909-.61589-6.01721-1.08759 4.19317-14.152.78622-26.99357-2.8828-16.51063 15.98648-11.00709s31.18672-1.83449 49.26982 51.62851z"
        fill="#d0cde1" transform="translate(-107.20664 -128.84754)" />
    <path
        d="m394.71082 543.73222c-.68664 1.465.75215.49794-.03408 2.00487l-7.33805 2.35866-3.2864 1.4807-6.01721-1.08759 4.19317-14.152.78622-26.99357-2.8828-16.51063 15.98648-11.00709s17.15794 24.29948-1.40733 63.90665z"
        opacity=".1" transform="translate(-107.20664 -128.84754)" />
    <path
        d="m505.14073 492.6672s-66.56667 30.92467-93.56024 35.642-24.63491 31.71089-24.63491 31.71089l151.21642-23.58661s-5.24148-24.37284-33.02127-43.76628z"
        fill="#d0cde1" transform="translate(-107.20664 -128.84754)" />
    <path
        d="m376.72471 487.42573s11.53123 28.04187-1.31037 62.89764l14.93819 6.81391 5.76562-6.81391.131-.65518-15.85545-1.44141s13.10367-35.11785 2.35866-59.49068c.00004 0-2.35862-5.24147-6.02765-1.31037z"
        fill="#6c63ff" transform="translate(-107.20664 -128.84754)" />
    <path
        d="m596.60438 695.25c-58.96654-13.10365-113.87094 14.021-113.87094 14.021l-.14938-.13366-21.86479-19.52185-85.436-139.4231 20.83484.131c57.91824-34.5937 139.4231-29.87638 139.4231-29.87638 35.11789 39.83516 61.06317 174.80299 61.06317 174.80299z"
        fill="#3f3d56" transform="translate(-107.20664 -128.84754)" />
    <path
        d="m482.58406 709.13729-21.86479-19.52185-85.436-139.4231 20.83484.131s83.04065 109.67517 86.46595 158.81395z"
        opacity=".1" transform="translate(-107.20664 -128.84754)" />
    <ellipse cx="485.87832" cy="579.80664" fill="#d0cde1" rx="33.80748" ry="21.49003"
        transform="matrix(.95603978 -.293237 .293237 .95603978 -255.86806 39.11836)" />
    <circle cx="27.79336" cy="277.15246" fill="#3f3d56" r="19" />
    <circle cx="955.79336" cy="642.15246" fill="#3f3d56" r="19" />
    <circle cx="110.79336" cy="279.15246" fill="#6c63ff" r="15" />
    <circle cx="955.79336" cy="279.15246" fill="#6c63ff" r="15" />
    <circle cx="27.79336" cy="640.15246" fill="#6c63ff" r="15" />
</svg>
