<svg fill="none" height="280" viewBox="0 0 280 280" width="280" xmlns="http://www.w3.org/2000/svg">
    <path
        d="m87.9547 69.2084s32.1593 24.4037 81.0493-21.2272c43.419-40.52458 78.871 23.414 79.12 54.0328.322 39.664-43.42 71.4-22.193 97.452 21.228 26.052-42.096 69.072-76.225 31.841-42.454-46.314-53.9555-8.684-78.1541-8.684-17.3677 0-53.0254-43.154-28.9461-75.26 20.2623-27.016 9.212-35.983 3.8593-45.349-7.7189-13.5081 10.6137-50.1733 41.4896-32.8056z"
        fill="#dee9ff" />
    <path d="m139.987 124.697v90.561l-70.3126-30.371.3354-90.2323z" fill="#418df9" />
    <path d="m139.988 124.751v90.561l69.97-29.321v-91.0472z" fill="#a2bdff" />
    <path d="m139.987 124.697 70.312-29.45-69.76-30.9228-70.8646 30.1866z" fill="#699cff" />
    <path d="m96.1796 83.2202 70.0444 30.4878.636 22.217 19.598-8.086-.593-22.358-72.116-29.7448z"
        fill="#418df9" />
    <g fill="#fff">
        <path
            d="m162.235 157.243c1.11 0 2.01-1.643 2.01-3.669s-.9-3.669-2.01-3.669-2.01 1.643-2.01 3.669.9 3.669 2.01 3.669z" />
        <path
            d="m194.618 144.049c1.11 0 2.01-1.642 2.01-3.668 0-2.027-.9-3.669-2.01-3.669s-2.01 1.642-2.01 3.669c0 2.026.9 3.668 2.01 3.668z" />
        <path
            d="m173.883 176.612-1.305-.507c2.892-7.446 6.518-11.547 10.779-12.191 4.076-.616 7.509 2.192 8.754 3.762l-1.097.87c-.861-1.086-3.878-3.787-7.448-3.248-3.676.556-7.024 4.468-9.683 11.314z" />
    </g>
</svg>
