<svg fill="none" height="280" viewBox="0 0 280 280" width="280" xmlns="http://www.w3.org/2000/svg">
    <path
        d="m183.03 48.7481s-31.962 40.4855-83.101 16.3366c-51.1388-24.1489-102.27772 41.1953-58.2414 80.9693 44.0363 39.775.9434 61.631 30.8599 86.007 34.0025 27.706 63.6045-28.476 90.5945-15.691 59.568 28.217 103.698 17.047 93.755-15.625-17.455-57.352-39.774-61.082-22.729-90.914 17.046-29.8314-20.575-91.8569-51.138-61.0829z"
        fill="#dee9ff" />
    <path d="m141.111 135.285v84.938l-65.9474-28.484.3146-84.631z" fill="#418df9" />
    <path d="m141.112 135.336v84.938l65.626-27.501v-85.394z" fill="#a2bdff" />
    <path d="m141.111 135.285 65.947-27.622-65.429-29.0026-66.4654 28.3126z" fill="#0e84e5" />
    <g fill="#699cff">
        <path
            d="m57.1545 122.125 66.3675 32.214c.178.086.38.112.574.073.195-.04.371-.142.501-.291l16.514-18.836-65.9474-28.312-18.1568 13.614c-.1241.093-.2223.216-.285.358-.0626.142-.0878.298-.0729.452.0148.155.0691.303.1576.43.0886.127.2084.23.348.298z" />
        <path
            d="m207.058 107.663 18.315 16.559c.112.101.197.228.247.37.05.143.064.295.04.444-.023.148-.084.289-.175.408-.092.12-.212.215-.35.276l-65.549 29.255c-.175.078-.37.098-.557.058-.188-.04-.358-.138-.486-.281l-17.432-19.467z" />
        <path
            d="m141.628 78.6603 65.613 29.0027 9.436-2.187c.186-.043.353-.143.478-.287.125-.143.202-.323.219-.513.017-.189-.026-.379-.123-.543s-.243-.293-.418-.369l-59.913-25.9598c-.131-.0568-.273-.0818-.416-.0728z" />
        <path
            d="m141.629 78.6603-65.2454 28.4477-8.2478-1.386c-.191-.036-.3654-.132-.4975-.274-.1321-.143-.2149-.324-.2361-.517s.0203-.388.1183-.556c.0981-.167.2475-.299.4262-.375l61.3933-26.4583c.136-.0577.283-.0814.43-.069z" />
    </g>
    <path
        d="m209.63 207.03c8.996 0 16.289-7.293 16.289-16.289s-7.293-16.289-16.289-16.289-16.289 7.293-16.289 16.289 7.293 16.289 16.289 16.289z"
        fill="#418df9" stroke="#fff" stroke-miterlimit="10" stroke-width="15" />
    <path
        d="m214.807 185.913c-.269-.935-.646-1.695-1.13-2.274-.468-.565-1.076-.999-1.763-1.258-1.482-.512-3.093-.512-4.575 0-.686.257-1.292.691-1.756 1.258-.492.579-.868 1.339-1.131 2.274-.262.936-.397 2.079-.397 3.425v2.745c0 1.346.135 2.49.404 3.432.211.837.599 1.619 1.137 2.294.468.571 1.075 1.012 1.763 1.279 1.475.529 3.087.529 4.562 0 .684-.267 1.288-.708 1.75-1.279.53-.678.913-1.46 1.124-2.294.262-.942.397-2.086.397-3.432h.014v-2.745c-.001-1.346-.136-2.489-.399-3.425zm-2.455 6.58c.009.733-.05 1.465-.175 2.187-.085.514-.261 1.008-.518 1.46-.199.349-.493.634-.848.821-.365.176-.766.263-1.171.256-.405.006-.805-.082-1.171-.256-.359-.188-.66-.472-.868-.821-.263-.451-.445-.945-.538-1.46-.137-.72-.201-1.453-.188-2.187v-3.593c-.012-.73.049-1.461.182-2.18.088-.504.269-.987.532-1.426.208-.336.507-.606.861-.781.367-.159.763-.242 1.164-.242.4 0 .797.083 1.164.242.357.171.657.442.861.781.263.439.444.922.532 1.426.133.719.194 1.449.182 2.18v3.593z"
        fill="#fff" />
</svg>
