<svg fill="none" height="280" viewBox="0 0 280 280" width="280" xmlns="http://www.w3.org/2000/svg">
    <path
        d="m95.76 79.7227s27.364 20.7653 68.966-18.0625c36.946-34.482 67.112 19.9231 67.323 45.9768.273 33.751-36.946 60.756-18.883 82.923 18.062 22.168-35.821 58.774-64.861 27.094-36.125-39.409-45.911-7.389-66.5023-7.389-14.7784 0-45.1199-36.721-24.6306-64.04 17.2414-22.988 7.8383-30.618 3.2841-38.588-6.5681-11.494 9.0313-42.6927 35.3038-27.9143z"
        fill="#dee9ff" />
    <path
        d="m203.629 174.789-100.468 30.846c-1.664.51-3.4636.339-5.0018-.477-1.5381-.816-2.6891-2.21-3.1999-3.875l-11.7488-38.259-9.7537-31.773-.1889-.608 1.3382-1.544 43.6619-50.3436c.2-.2331.462-.4046.755-.4948.294-.0901.607-.0951.903-.0144l64.417 17.184 1.946.5172.6 1.9376 21.092 68.695c.509 1.665.337 3.465-.479 5.004-.815 1.539-2.208 2.692-3.873 3.205z"
        fill="#418df9" />
    <path d="m186.889 97.8844-38.079 44.8606v-2.463l35.534-44.8524 1.945.5172z" fill="#208af2" />
    <path
        d="m203.746 174.75c-.074.025-.155.025-.23 0l-61.494-22.832c-.05-.019-.094-.049-.13-.089-.036-.039-.062-.086-.076-.137-.015-.051-.017-.105-.007-.157.011-.052.033-.101.065-.143l10.279-12.824 33.744-42.1258c.037-.0479.087-.0847.143-.1063.057-.0216.118-.0271.177-.0161.06.011.115.0382.16.0787.045.0404.078.0924.095.1504l21.363 69.5891.14.443c.507 1.644.348 3.422-.443 4.95s-2.15 2.684-3.786 3.219z"
        fill="#a2bdff" />
    <path
        d="m138.096 149.338-.558 1.166-63.6625-19.672c-.0581-.018-.1202-.02-.1793-.005-.0591.014-.1131.045-.1562.088s-.0736.097-.0883.156c-.0146.059-.0129.121.0051.18l-.1889-.608 1.3382-1.544z"
        fill="#208af2" />
    <path
        d="m141.322 152.129-38.087 53.408c-.044.066-.111.113-.189.131-1.653.475-3.4274.282-4.94-.538s-2.6426-2.201-3.1467-3.846l-11.7488-38.26-9.7537-31.773c-.018-.058-.0197-.12-.0051-.18.0147-.059.0452-.113.0883-.156s.0971-.073.1562-.088.1212-.013.1794.005l63.6614 19.672 3.612 1.116c.05.016.096.043.133.08.038.036.066.081.083.131s.022.102.014.154c-.007.052-.027.101-.057.144z"
        fill="#a2bdff" />
    <path
        d="m203.627 174.79-100.462 30.845c-1.521.462-3.158.359-4.6082-.292-1.4506-.65-2.6169-1.803-3.2836-3.247-.1124-.246-.1623-.517-.1452-.787s.1007-.532.2432-.763l40.0378-65.218c.209-.34.535-.593.918-.71.382-.118.794-.091 1.158.073l69.738 31.513c.247.111.463.281.629.495s.276.466.321.733c.258 1.569-.06 3.178-.895 4.53-.836 1.353-2.133 2.357-3.651 2.828z"
        fill="#699cff" />
    <g fill="#fff">
        <path
            d="m183.796 72.3998c-.059-.0001-.118-.0153-.17-.0443s-.095-.0707-.127-.1213c-.031-.0506-.049-.1084-.052-.1678-.003-.0595.01-.1187.036-.172.3-.6058.46-.938.461-.9389.019-.043.046-.0818.08-.1141.034-.0322.075-.0572.119-.0735s.091-.0235.138-.0213c.047.0023.093.014.135.0344.043.0205.08.0492.111.0846s.055.0766.07.1213c.014.0447.02.0918.016.1387-.004.0468-.017.0924-.039.134 0 0-.162.3345-.464.9454-.029.0584-.074.1076-.129.142-.056.0344-.119.0527-.185.0528z" />
        <path
            d="m148.453 122.26c-.067 0-.132-.019-.188-.055-.057-.036-.101-.087-.13-.147-.028-.061-.038-.128-.029-.194.008-.066.036-.128.079-.179.452-.539.882-1.074 1.277-1.589.056-.074.14-.122.232-.134s.185.012.259.069c.073.056.122.14.134.232s-.013.185-.07.259c-.401.523-.837 1.066-1.296 1.613-.033.039-.074.071-.12.092-.047.022-.097.033-.148.033zm2.492-3.265c-.064 0-.126-.017-.181-.05-.054-.033-.099-.08-.129-.136-.029-.056-.043-.12-.04-.183.004-.064.025-.125.06-.178.401-.588.763-1.166 1.077-1.716.023-.04.054-.075.09-.103s.078-.049.122-.061.091-.015.136-.01c.046.006.09.021.13.044.04.022.075.053.103.089.028.037.049.078.061.122.012.045.015.091.01.137-.006.045-.021.089-.044.129-.323.566-.695 1.159-1.106 1.763-.032.047-.075.086-.126.113-.05.026-.106.04-.163.04zm-.072-3.336h-.006c-.708.004-1.407-.149-2.049-.448-.041-.019-.079-.047-.11-.081-.031-.033-.055-.073-.071-.116-.015-.044-.022-.089-.02-.135s.013-.091.032-.133c.02-.042.047-.079.081-.11s.074-.055.117-.071.089-.023.135-.021.091.013.132.033c.55.255 1.148.385 1.753.382h.087.006c.046-.001.092.008.135.025.042.017.081.043.114.075s.059.07.077.113c.018.042.027.087.028.133 0 .046-.008.092-.026.135-.017.042-.042.081-.075.114-.032.033-.07.059-.112.077-.043.018-.088.027-.134.028-.031 0-.063 0-.094 0zm2.084-.238c-.08-.022-.153-.065-.212-.125-.058-.06-.099-.135-.119-.216s-.017-.166.007-.246.068-.152.129-.209c.207-.511.371-1.039.49-1.577.01-.045.028-.088.054-.126.026-.039.059-.071.098-.097.039-.025.082-.042.127-.051.046-.008.093-.008.138.002s.088.028.126.055c.038.026.07.06.095.099s.042.083.05.128c.008.046.007.092-.003.138-.078.358-.177.711-.294 1.058.319-.15.646-.324.978-.52.08-.044.173-.055.261-.031.087.024.162.081.209.159.046.078.06.171.039.26-.021.088-.076.165-.152.214-.537.321-1.099.597-1.68.827l-.019.045c-.027.063-.072.117-.129.154-.057.038-.124.059-.193.059zm-5.673-1.344c-.085 0-.167-.03-.231-.087-.558-.467-1.03-1.029-1.392-1.661-.024-.041-.039-.086-.046-.132-.006-.047-.002-.095.01-.14.013-.045.035-.088.064-.124.03-.037.066-.068.108-.09.041-.022.087-.036.134-.04.047-.005.094.001.139.015s.086.038.122.069c.035.03.064.068.085.11.323.558.742 1.055 1.238 1.467.053.047.091.109.108.178s.013.142-.012.209c-.025.066-.07.124-.128.164-.059.041-.128.062-.199.062zm9.213-.848c-.073 0-.144-.023-.204-.065-.059-.043-.104-.103-.127-.172-.024-.07-.025-.145-.004-.215s.064-.131.122-.176c.503-.385 1.026-.822 1.556-1.301.034-.031.074-.054.117-.07.044-.015.089-.022.135-.019.046.002.091.013.133.033.041.02.079.047.109.082.031.034.055.074.07.117.016.043.022.089.02.135s-.014.091-.033.132c-.02.042-.048.079-.082.11-.544.491-1.082.941-1.599 1.337-.061.046-.136.071-.212.071zm-2.794-1.797c-.084-.001-.165-.031-.228-.086-.064-.055-.106-.131-.118-.214-.075-.614-.339-1.19-.754-1.649-.063-.068-.096-.158-.092-.251.003-.092.043-.179.111-.242s.158-.097.251-.093c.092.003.18.043.243.11.512.563.839 1.269.934 2.024.007.045.004.092-.007.136-.011.045-.031.087-.059.124-.027.037-.062.068-.101.091-.04.024-.083.039-.129.046-.017.002-.034.004-.051.004zm-7.955-.897c-.056 0-.112-.014-.162-.04s-.093-.064-.125-.11-.053-.1-.06-.155c-.007-.056-.001-.113.019-.166.242-.658.77-1.231 1.528-1.657.081-.045.176-.057.266-.032.089.025.165.085.21.166.046.081.057.177.032.266s-.084.165-.165.211c-.611.342-1.031.788-1.214 1.288-.025.067-.07.125-.128.166-.059.041-.129.063-.201.063zm13.811-.05c-.069 0-.136-.021-.194-.059-.057-.038-.102-.093-.129-.156-.026-.064-.034-.134-.021-.202.014-.068.046-.13.095-.179.456-.462.927-.963 1.4-1.487.062-.069.149-.11.242-.115.092-.005.183.028.252.09s.11.149.115.242c.005.092-.027.183-.089.252-.48.532-.958 1.039-1.422 1.509-.032.033-.071.06-.114.078-.043.017-.089.027-.135.027zm-8.453-1.907c-.031 0-.062-.004-.092-.012-.622-.161-1.268-.202-1.905-.121-.046.005-.092.001-.136-.011-.045-.012-.086-.033-.122-.062-.036-.028-.067-.063-.089-.103-.023-.04-.037-.084-.043-.13-.005-.046-.002-.092.011-.136.012-.044.033-.086.061-.122.029-.036.064-.066.104-.089.04-.022.084-.037.13-.042.726-.092 1.464-.045 2.172.14.082.022.153.073.2.143.048.071.067.156.056.241-.011.084-.052.161-.116.217s-.146.087-.231.087zm11.214-1.144c-.067 0-.132-.019-.188-.055s-.101-.087-.129-.147c-.028-.061-.039-.128-.03-.194s.036-.128.079-.179c.424-.504.86-1.037 1.295-1.586.029-.037.064-.068.104-.091.041-.023.085-.038.131-.043.046-.006.093-.002.138.01.044.013.086.034.122.063.037.029.067.065.089.105.023.041.037.086.042.132s0 .092-.013.137c-.013.044-.035.086-.064.122-.44.554-.88 1.093-1.308 1.602-.033.039-.074.07-.12.092-.046.021-.097.032-.148.032zm2.561-3.221c-.065 0-.129-.019-.184-.053s-.1-.083-.129-.141c-.029-.059-.041-.124-.035-.189.006-.064.03-.126.069-.178.4-.53.81-1.084 1.219-1.649.055-.076.137-.126.229-.141.091-.014.185.008.26.062.075.055.126.137.141.229.014.091-.008.185-.063.26-.412.569-.825 1.128-1.228 1.661-.032.043-.074.078-.123.102-.048.024-.101.037-.155.037zm2.416-3.332c-.064 0-.127-.018-.181-.051-.055-.033-.1-.081-.129-.138-.03-.056-.043-.12-.039-.184s.026-.125.062-.178c.382-.5456.773-1.1156 1.162-1.6919.052-.077.133-.1301.224-.1477.091-.0177.185.0016.262.0536s.13.1324.148.2235c.018.0912-.002.1856-.054.2626-.392.5793-.784 1.1519-1.167 1.7009-.033.046-.076.084-.126.11s-.105.04-.162.04zm2.305-3.4105c-.064-.0001-.125-.0172-.18-.0495-.054-.0324-.098-.0788-.128-.1343-.03-.0556-.045-.1182-.042-.1812.003-.0631.022-.1242.057-.177.37-.5647.746-1.1462 1.118-1.7283.05-.0782.129-.1334.219-.1535.091-.02.186-.0032.264.0468.078.0499.134.1289.154.2195.02.0907.003.1856-.047.2638-.373.5845-.751 1.1685-1.122 1.736-.032.0484-.076.0882-.127.1157s-.108.0418-.166.0418zm2.216-3.472c-.062-.0001-.123-.0168-.177-.0485s-.098-.0772-.128-.1317c-.031-.0546-.046-.1162-.044-.1786.001-.0624.02-.1232.053-.1762.354-.5696.716-1.1583 1.076-1.75.049-.0793.126-.1362.217-.1581.09-.022.185-.0072.264.0411.08.0483.137.126.158.2163.022.0902.008.1854-.041.2647-.361.5936-.724 1.1844-1.08 1.7559-.032.0503-.076.0917-.127.1205-.052.0287-.111.0438-.17.0437zm2.14-3.5163c-.062-.0001-.122-.0165-.176-.0476-.053-.0312-.097-.0759-.128-.1296-.03-.0538-.046-.1146-.045-.1764 0-.0618.017-.1223.049-.1754.354-.5938.702-1.184 1.044-1.7705.023-.0403.053-.0757.09-.1041.036-.0285.078-.0493.123-.0614s.092-.0152.138-.0091c.045.0061.09.0213.13.0447s.075.0544.103.0914.048.0792.059.1241c.012.0449.014.0917.008.1376-.007.0458-.023.0899-.047.1296-.343.588-.692 1.1799-1.047 1.7758-.031.052-.075.0951-.127.125-.053.0299-.113.0456-.173.0456zm2.076-3.555c-.061 0-.122-.0162-.175-.0469-.053-.0306-.097-.0747-.128-.1277-.03-.0531-.047-.1133-.047-.1746s.016-.1216.046-.1748c.347-.604.685-1.2 1.015-1.788.023-.0402.053-.0757.089-.1042.036-.0286.078-.0498.122-.0623s.091-.0162.137-.0107c.045.0054.09.0199.13.0425s.075.0529.104.0891c.028.0363.049.0778.061.1223.013.0444.016.0908.01.1365-.005.0457-.02.0899-.043.13-.331.5888-.67 1.1862-1.017 1.792-.031.0534-.075.0977-.128.1285-.054.0308-.114.0471-.176.047zm2.019-3.5885c-.061 0-.121-.016-.174-.0462s-.097-.0737-.128-.1262c-.03-.0524-.047-.112-.048-.1728-.001-.0609.014-.1209.044-.1742.34-.616.669-1.2172.988-1.8036.044-.0816.119-.1422.208-.1685s.185-.0162.267.0282c.081.0443.142.1192.168.2082.027.089.017.1849-.028.2664-.319.5872-.649 1.1898-.991 1.808-.03.0546-.074.1-.128.1316-.054.0317-.115.0483-.178.0483zm1.966-3.6187c-.06-.0001-.119-.0159-.172-.0457-.052-.0299-.096-.0728-.127-.1247-.031-.0518-.048-.1108-.05-.1712-.001-.0604.013-.1202.041-.1735.338-.6327.66-1.2387.964-1.818.021-.0416.05-.0786.085-.1089.035-.0302.076-.0532.121-.0674.044-.0142.091-.0195.137-.0155s.091.0173.133.0389c.041.0217.077.0513.107.0872.029.0359.052.0773.065.1219.013.0445.018.0913.013.1376s-.019.0911-.042.1318c-.304.5794-.626 1.1868-.966 1.8223-.03.0557-.074.1023-.128.1348-.055.0324-.117.0496-.18.0496zm1.917-3.6477c-.06 0-.119-.0155-.171-.045-.053-.0294-.097-.0718-.128-.1231s-.048-.1098-.051-.1698c-.002-.06.012-.1195.039-.1728.349-.6741.662-1.288.938-1.8328.021-.0412.05-.078.084-.1082.035-.0302.076-.0532.12-.0676.043-.0145.09-.0202.136-.0167.046.0034.09.0159.132.0368.041.0208.077.0496.107.0847.03.035.053.0756.067.1195.015.0439.02.0902.016.1361-.003.046-.016.0908-.037.1318-.277.546-.591 1.162-.941 1.8377-.029.0569-.074.1046-.129.1378-.054.0333-.117.0508-.181.0508z" />
        <path
            d="m146.427 124.55c-.068 0-.134-.02-.191-.057s-.102-.091-.13-.153c-.027-.062-.035-.131-.024-.198.012-.068.042-.13.089-.18.241-.261.476-.518.704-.771.031-.035.068-.064.109-.085.042-.02.087-.032.134-.035.046-.003.093.003.137.019.043.015.084.039.118.07.035.031.063.069.083.111s.031.087.033.134c.002.046-.005.092-.021.136s-.041.084-.072.118c-.23.256-.468.516-.712.779-.033.035-.072.064-.117.083-.044.019-.092.029-.14.029z" />
        <path
            d="m131.772 102.023c-.06 0-.118-.015-.17-.044s-.096-.071-.127-.121c-.032-.051-.05-.109-.053-.168-.002-.06.01-.119.036-.172.285-.577.439-.93.441-.934.037-.084.106-.151.193-.185.086-.033.182-.032.267.005s.151.106.186.192c.034.086.032.182-.004.267-.006.015-.162.371-.455.965-.029.059-.074.108-.129.142-.056.035-.12.053-.185.053z" />
        <path
            d="m114.832 118.824c-.068 0-.134-.019-.191-.057-.057-.037-.102-.09-.129-.152-.028-.062-.036-.131-.025-.198s.042-.129.088-.18c.499-.543.973-1.078 1.41-1.591.03-.036.066-.065.107-.087.041-.021.086-.034.132-.038s.093.001.137.015.085.037.12.067c.036.03.065.067.085.108.021.041.034.086.037.133.004.046-.002.092-.017.136-.014.044-.038.085-.068.12-.443.519-.923 1.061-1.428 1.611-.033.036-.073.064-.117.084-.044.019-.092.029-.141.029zm2.767-3.263c-.065 0-.129-.019-.185-.053-.055-.035-.1-.084-.129-.143-.028-.058-.04-.124-.034-.189s.031-.127.071-.179c.458-.597.871-1.176 1.227-1.72.026-.038.058-.071.096-.097s.081-.044.126-.054c.045-.009.091-.009.136-.001.046.009.089.026.127.051.039.025.072.058.098.096.025.038.044.081.053.126s.01.091.001.136c-.008.045-.026.088-.051.127-.366.559-.789 1.152-1.258 1.763-.033.042-.075.077-.123.1-.048.024-.101.037-.155.037zm2.42-1.911c-.089 0-.175-.034-.24-.095-.064-.062-.103-.145-.109-.234-.005-.089.024-.176.081-.245.056-.068.137-.112.226-.123.676-.087 1.337-.267 1.964-.534.086-.036.182-.037.268-.002.086.036.155.103.191.189s.036.182.001.268-.103.154-.189.19c-.686.292-1.41.488-2.15.584-.014.001-.029.002-.043.002zm-2.128-.072c-.023 0-.045-.002-.067-.006-.732-.145-1.442-.39-2.107-.729-.082-.042-.145-.115-.173-.202-.029-.088-.022-.184.02-.266.041-.083.113-.146.201-.175s.183-.023.266.018c.608.309 1.256.534 1.925.667.086.016.162.064.214.134.052.069.077.156.069.242-.009.087-.049.168-.113.226-.064.059-.148.091-.235.091zm6.057-1.52c-.075 0-.148-.023-.208-.068-.06-.044-.105-.107-.127-.178s-.021-.148.004-.219c.024-.07.071-.131.133-.173.573-.397 1.117-.835 1.627-1.31.033-.031.073-.055.116-.071s.089-.023.135-.021c.046.001.091.012.133.032.042.019.079.046.11.08.032.034.056.073.072.116s.023.089.021.135-.013.091-.032.133-.046.079-.08.11c-.535.498-1.106.957-1.707 1.372-.058.041-.127.062-.198.062zm-4.036-.091c-.059 0-.118-.015-.169-.044-.052-.028-.096-.07-.128-.12-.031-.051-.049-.108-.052-.168-.003-.059.009-.118.035-.172.312-.608.543-1.253.688-1.921.018-.091.071-.172.148-.224s.172-.071.263-.053.171.071.223.148.071.171.054.262c-.157.728-.408 1.433-.747 2.096-.029.059-.074.109-.13.144-.055.034-.12.053-.185.052zm-5.797-.291c-.092 0-.181-.037-.247-.102-.598-.596-.902-1.232-.902-1.892 0-.104.008-.209.024-.313.014-.092.063-.174.138-.229.075-.056.168-.079.26-.065s.174.063.229.138c.056.075.079.168.065.26-.01.069-.016.14-.016.21 0 .466.235.935.697 1.395.049.049.082.112.096.18.013.068.006.138-.02.202-.027.064-.071.119-.129.157-.058.039-.125.059-.195.059zm12.988-2.497c-.067 0-.133-.019-.189-.056-.057-.036-.101-.088-.129-.149s-.037-.129-.028-.196c.01-.066.039-.129.083-.179.443-.506.888-1.061 1.323-1.647.056-.074.138-.123.23-.137.091-.013.184.011.259.066.074.055.123.137.137.228.014.092-.009.185-.063.259-.446.602-.904 1.171-1.359 1.692-.033.038-.074.068-.119.088-.046.021-.095.032-.145.031zm-12.584-1.127c-.073 0-.145-.023-.204-.066-.06-.043-.104-.103-.128-.173-.023-.07-.024-.145-.002-.215s.066-.132.124-.176c.612-.448 1.299-.783 2.028-.989.089-.024.183-.012.262.033.08.045.139.12.164.207.026.088.016.182-.027.263s-.116.141-.203.169c-.648.184-1.258.481-1.803.877-.061.046-.135.07-.211.07zm5.852-.163c-.058 0-.116-.015-.167-.043s-.095-.068-.127-.117c-.373-.579-1.057-.77-1.565-.828-.046-.005-.091-.018-.131-.041-.041-.022-.077-.052-.106-.088s-.05-.077-.063-.122c-.013-.044-.017-.091-.012-.137.006-.046.02-.09.043-.131.022-.04.053-.076.089-.104.036-.029.078-.05.123-.062.044-.013.091-.016.137-.01.943.108 1.66.504 2.073 1.142.034.053.054.114.056.177s-.012.126-.042.181-.075.101-.129.133c-.054.033-.116.05-.179.05zm9.29-2.142c-.063-.001-.124-.017-.178-.05-.054-.032-.099-.078-.129-.133s-.045-.117-.042-.18c.002-.063.021-.124.055-.177.376-.583.745-1.194 1.098-1.817.022-.04.053-.076.089-.104.036-.029.078-.05.122-.062.045-.013.091-.016.137-.011.046.006.09.02.13.043s.076.053.104.09c.028.036.049.078.061.122.012.045.016.092.01.137-.006.046-.021.09-.044.13-.359.634-.736 1.257-1.118 1.851-.032.049-.076.09-.127.118-.052.029-.11.043-.169.043z" />
        <path
            d="m112.612 121.137c-.069 0-.136-.021-.194-.059s-.102-.093-.129-.157-.034-.134-.02-.202c.013-.067.046-.13.095-.179.252-.252.497-.5.734-.744.065-.067.154-.105.247-.106.092-.001.182.035.248.099.067.065.105.154.106.247.001.092-.034.182-.099.248-.24.246-.487.497-.741.751-.032.032-.071.058-.113.075-.042.018-.088.027-.134.027z" />
    </g>
</svg>
