<svg fill="none" height="280" viewBox="0 0 280 280" width="280" xmlns="http://www.w3.org/2000/svg">
    <path
        d="m41.5004 212.398c7.616 18.585 20.034 22.453 28.7648 18.585 16.8851-7.482 60.7468-15.84 105.7938 3.808 59.663 26.023 72.357-13.239 53.316-52.954-19.041-39.714-25.495-79.877-3.544-102.0039 21.951-22.1271-6.774-56.7419-57.787-20.7103-32.966 23.2849-57.16 18.1001-70.1519 11.5175-12.2444-6.2038-25.8616-12.6896-38.6197-7.6255-15.4805 6.145-21.5803 19.4677 1.9726 49.2312 33.3764 42.176-36.8169 58.494-19.7446 100.152z"
        fill="#dee9ff" />
    <path
        d="m72.5103 121.864h118.5277v91.156c0 .185-.073.363-.205.494-.131.132-.309.206-.495.206h-117.1277c-.1857 0-.3638-.074-.495-.206-.1313-.131-.205-.309-.205-.494z"
        fill="#a2bdff" />
    <path d="m161.304 86.1428h-55.114l-33.6797 35.7212h118.5277z" fill="#418df9" />
    <path d="m83.7369 71.8541 22.4531 14.2887-33.6798 35.7212-25.5154-19.391z" fill="#699cff" />
    <path d="m183.757 71.8541-22.454 14.2887 29.735 35.7212 29.461-19.391z" fill="#699cff" />
    <g fill="#418df9">
        <path
            d="m120.67 72.5847c.634-.3005 1.127-.8342 1.376-1.4896s.236-1.3818-.038-2.0274l-10.101-23.8179c-.143-.3374-.353-.6423-.617-.8965s-.576-.4524-.919-.5827c-.342-.1303-.708-.19-1.074-.1754-.366.0145-.726.1029-1.057.2599l-1.946.9228c-.331.157-.627.3793-.87.6536s-.428.5949-.544.9425-.16.7151-.13 1.0804c.03.3652.133.7206.303 1.0449l12.047 22.8951c.327.6206.881 1.0909 1.546 1.3128.665.2218 1.39.1779 2.024-.1225z" />
        <path
            d="m133.334 70.2757c.458-.0327.886-.2413 1.195-.5823.308-.3409.473-.7879.46-1.2474l-.499-16.9563c-.007-.2401-.063-.4764-.164-.6946-.1-.2181-.244-.4137-.422-.5748-.179-.1612-.388-.2847-.615-.363-.227-.0784-.468-.11-.707-.0929l-1.409.1004c-.24.017-.473.0823-.687.192-.214.1096-.403.2614-.557.4461-.153.1846-.268.3985-.337.6286s-.09.4718-.063.7105l1.907 16.856c.052.457.278.8763.632 1.1703.353.294.807.44 1.266.4074z" />
        <path
            d="m143.11 76.5438c1.262.7293 3.032.0601 4.014-1.5173l17.439-28.0074c1.042-1.6732.795-3.7124-.542-4.4859l-1.865-1.078c-1.338-.7736-3.229.0297-4.159 1.7672l-15.574 29.0853c-.877 1.6381-.574 3.5067.687 4.2361z" />
    </g>
</svg>
