<svg fill="none" height="280" viewBox="0 0 280 280" width="280" xmlns="http://www.w3.org/2000/svg">
    <path
        d="m84.5562 73.886s30.0238 22.784 75.6678-19.818c40.536-37.8337 73.635 21.8595 73.866 50.446.3 37.03-40.536 66.659-20.718 90.981 19.817 24.322-39.302 64.486-71.164 29.727-39.636-43.239-50.3735-8.107-72.9656-8.107-16.2146 0-49.5048-40.29-27.0243-70.264 18.9171-25.222 8.6-33.593 3.6039-42.337-7.2071-12.6118 9.9083-46.8425 38.7342-30.628z"
        fill="#dee9ff" />
    <path
        d="m205.092 124.235c1.614.6 3.377.64 5.055.254 7.03-1.613 31.203-5.886 27.003 12.846-.915 3.716-15.072 24.53 5.089 32.127 1.478.564 3.04.872 4.621.91 6.208.128 18.509-1.338 23.657-6.578 6.22-6.331-.575-3.329-.575-3.329s-23.644 10.318-31.996-.629c-.929-1.218-1.521-2.987-1.69-4.51-.294-2.64.878-6.129 2.418-9.167 2.085-4.111 12.092-22.604-9.636-27.991-5.005-1.192-12.275-2.262-21.648 1.684-5.468 2.302-4.257 3.655-2.298 4.383z"
        fill="#bdd6f9" />
    <path
        d="m209.93 117.331-6.293 2.356c-2.172.813-3.274 3.233-2.461 5.405l.312.834c.813 2.172 3.233 3.274 5.405 2.461l6.294-2.355c2.172-.813 3.274-3.233 2.461-5.406l-.312-.833c-.813-2.173-3.233-3.275-5.406-2.462z"
        fill="#0e84e5" />
    <path
        d="m171.3 124.147-20.754 7.768c-1.087.406-1.638 1.616-1.231 2.702l.082.219c.406 1.086 1.616 1.637 2.703 1.231l20.754-7.768c1.087-.407 1.638-1.617 1.231-2.703l-.082-.219c-.406-1.086-1.616-1.637-2.703-1.23z"
        fill="#fff" />
    <path
        d="m177.093 139.624-20.755 7.767c-1.086.407-1.637 1.617-1.23 2.703l.081.219c.407 1.086 1.617 1.637 2.703 1.23l20.755-7.767c1.086-.407 1.637-1.617 1.231-2.703l-.082-.219c-.406-1.086-1.617-1.637-2.703-1.23z"
        fill="#fff" />
    <path
        d="m196.255 113.585-16.821 6.295c-2.173.813-3.275 3.234-2.462 5.406l5.744 15.345c.813 2.172 3.233 3.274 5.405 2.461l16.822-6.295c2.172-.813 3.274-3.233 2.461-5.406l-5.743-15.345c-.813-2.172-3.233-3.274-5.406-2.461z"
        fill="#5895f9" />
    <path
        d="m181.172 117.61-16.822 6.296c-2.172.813-3.274 3.233-2.461 5.406l6.852 18.307c.813 2.172 3.233 3.274 5.405 2.461l16.822-6.295c2.172-.813 3.274-3.233 2.461-5.406l-6.852-18.307c-.813-2.173-3.233-3.275-5.405-2.462z"
        fill="#699cff" />
    <path
        d="m183.805 113.895-.132.049c-1.448.542-2.183 2.156-1.641 3.604l9.599 25.647c.542 1.448 2.155 2.183 3.603 1.641l.132-.05c1.449-.542 2.183-2.155 1.641-3.603l-9.598-25.647c-.542-1.448-2.156-2.183-3.604-1.641z"
        fill="#208af2" />
    <path
        d="m12.2816 130.292s33.7831-9.494 28.8784 12.38c-.8518 3.461-13.1129 21.281 1.4919 29.837 3.136 1.837 6.755 2.651 10.3893 2.632 6.516-.034 16.8459-1.288 21.4865-6.011 6.2193-6.331-.5751-3.329-.5751-3.329s-19.4022 7.981-29.3839 1.619c-3.4083-2.172-4.9532-6.378-4.0277-10.313.4731-1.954 1.1934-3.84 2.1437-5.612 2.1708-4.066 12.0921-22.604-9.6359-27.991-5.0053-1.192-12.2751-2.262-21.6488 1.684-9.37369 3.947.8816 5.104.8816 5.104z"
        fill="#bdd6f9" />
    <path
        d="m79.0704 160.906-6.2932 2.356c-2.1725.813-3.2745 3.233-2.4614 5.406l.312.833c.813 2.173 3.2332 3.275 5.4057 2.461l6.2932-2.355c2.1725-.813 3.2744-3.233 2.4614-5.406l-.312-.833c-.813-2.173-3.2333-3.275-5.4057-2.462z"
        fill="#0e84e5" />
    <path
        d="m89.7031 150.552-9.3269 3.491c-2.1725.813-3.2745 3.233-2.4614 5.406l4.4974 12.016c.8131 2.173 3.2333 3.275 5.4057 2.462l9.3269-3.491c2.1725-.813 3.2742-3.233 2.4614-5.406l-4.4974-12.016c-.8131-2.173-3.2333-3.275-5.4057-2.462z"
        fill="#5895f9" />
    <path
        d="m105.23 141.3-13.9088 5.206c-2.1724.813-3.2744 3.233-2.4613 5.406l6.8517 18.307c.8131 2.173 3.2333 3.275 5.4054 2.462l13.909-5.206c2.173-.813 3.275-3.233 2.462-5.406l-6.852-18.307c-.813-2.173-3.233-3.275-5.406-2.462z"
        fill="#699cff" />
    <path
        d="m108.177 137.509-.132.049c-1.449.542-2.183 2.156-1.641 3.604l9.598 25.647c.542 1.448 2.156 2.183 3.604 1.641l.132-.05c1.448-.542 2.183-2.155 1.641-3.604l-9.599-25.646c-.542-1.448-2.155-2.183-3.603-1.641z"
        fill="#208af2" />
    <g fill="#418df9">
        <path
            d="m143.694 121.17c-.501-.056-.961-.303-1.283-.691-.321-.388-.48-.885-.443-1.388l1.038-18.956c.062-1.1323 1.018-1.9926 2.103-1.8925l1.512.14c1.085.1001 1.862 1.12 1.71 2.2445l-2.55 18.816c-.058.501-.308.96-.697 1.282s-.887.481-1.39.445z" />
        <path
            d="m134.733 122.804c-.156.046-.319.061-.481.044-.161-.018-.318-.067-.46-.145-.143-.077-.268-.182-.37-.309-.102-.126-.178-.272-.224-.427l-3.706-11.792c-.108-.335-.078-.7.082-1.013.161-.314.439-.551.775-.659l.959-.29c.165-.048.338-.061.508-.039s.333.079.48.168c.147.088.274.206.373.346s.168.299.202.467l2.747 12.082c.077.324.028.666-.136.957-.164.29-.431.508-.749.61z" />
        <path
            d="m129.732 129.604c-.664.823-2 .813-3.028-.022l-18.251-14.829c-1.091-.886-1.412-2.352-.708-3.224l.982-1.216c.705-.873 2.151-.801 3.183.157l17.27 16.046c.973.903 1.216 2.266.552 3.088z" />
        <path
            d="m138.169 167.906c.47.182.851.539 1.063.996.213.457.239.979.075 1.455l-5.845 18.062c-.349 1.079-1.493 1.666-2.517 1.292l-1.427-.521c-1.023-.374-1.514-1.559-1.08-2.606l7.271-17.541c.185-.47.543-.85 1.002-1.062.458-.212.98-.239 1.458-.075z" />
        <path
            d="m147.25 168.615c.162-.005.324.023.476.081.151.058.29.145.408.257.118.111.213.245.279.393s.103.308.107.471l.572 12.347c.018.352-.103.696-.339.958-.235.263-.565.421-.916.44l-1.002.035c-.172.004-.342-.027-.501-.092s-.302-.162-.422-.285c-.119-.123-.212-.269-.272-.43-.059-.161-.085-.332-.076-.503l.43-12.382c.009-.334.144-.652.376-.891.233-.239.547-.381.88-.399z" />
        <path
            d="m153.822 163.317c.852-.626 2.141-.275 2.921.795l13.86 18.998c.827 1.135.764 2.634-.14 3.298l-1.26.925c-.904.664-2.285.225-3.038-.965l-12.6-19.924c-.708-1.121-.595-2.501.257-3.127z" />
    </g>
</svg>
