<svg fill="none" height="280" viewBox="0 0 280 280" width="280" xmlns="http://www.w3.org/2000/svg">
    <path
        d="m185.124 44.1076s-33.61 42.5729-87.3863 17.178c-53.7761-25.3949-107.5516 43.3204-61.2451 85.1464 46.3066 41.826.9922 64.809 32.452 90.442 35.7564 29.134 66.8854-29.944 95.2664-16.5 62.64 29.672 109.046 17.925 98.59-16.432-18.355-60.309-41.826-64.232-23.9-95.602 17.925-31.3698-21.637-96.594-53.777-64.2324z"
        fill="#dee9ff" />
    <path
        d="m181.728 121.939s34.206-2.222 36.871-35.9835c-3.109-2.2212-7.552-15.5482 0-16.8809s12.883 0 12.883 0 13.771 10.6615-3.554 18.6578c-.444 4.4425-.888 43.9796-36.427 61.3046s-9.773-27.098-9.773-27.098z"
        fill="#699cff" />
    <path
        d="m238.214 47.3906-13.714-2.4989c-.76-.1386-1.489.3657-1.628 1.1264l-4.941 27.1179c-.139.7607.365 1.4897 1.126 1.6283l13.714 2.4989c.76.1386 1.489-.3657 1.628-1.1263l4.941-27.118c.139-.7607-.365-1.4897-1.126-1.6283z"
        fill="#0e84e5" />
    <path
        d="m198.928 146.443c0 18.818-8.333 35.699-21.518 47.16-11.35 9.851-25.878 15.265-40.906 15.246-22.194 0-41.6691-11.568-52.7394-29.018-5.9724-9.441-9.3021-20.312-9.642-31.478-.3398-11.167 2.3227-22.22 7.7099-32.007s13.3017-17.9487 22.9175-23.6349c9.617-5.6862 20.583-8.688 31.754-8.6924 28.947 0 53.309 19.7063 60.345 46.4493 1.391 5.211 2.09 10.582 2.079 15.975z"
        fill="#a2bdff" />
    <path
        d="m177.41 193.603c-11.35 9.85-25.878 15.265-40.906 15.246-22.194 0-41.6691-11.568-52.7395-29.018 9.7377-7.978 15.2284-7.126 18.8885-5.757 3.999 1.511 6.22 8.281 17.77 1.617 11.55-6.663 20.879 9.329 25.321 11.995 17.77-1.28 27.028 2.505 31.666 5.917z"
        fill="#0e84e5" />
    <path
        d="m196.85 130.468c-26.388 6.255-24.522-8.76-27.117-17.858-2.665-9.329-4.442-6.22-20.879 6.664-16.437 12.883-18.214-7.997-18.516-11.55-.319-3.554-1.03-4.886-9.471-3.839-8.44 1.048-10.661-5.4904-17.769-1.048-2.95 1.848-6.9658 1.013-10.6441-.604 5.7818-5.7866 12.6491-10.3743 20.2091-13.5 7.559-3.1256 15.661-4.7276 23.841-4.7141 28.947-.0003 53.309 19.7061 60.346 46.4491z"
        fill="#0e84e5" />
    <g fill="#699cff">
        <path
            d="m83.4985 79.3276c-.2858.9649-.2789 1.9927.0195 2.9537.2985.961.8752 1.8118 1.6572 2.445.7821.6332 1.7343 1.0203 2.7363 1.1123 1.002.0921 2.0089-.1151 2.8931-.5953.8843-.4802 1.6064-1.2118 2.0748-2.1023.4685-.8905.6625-1.9.5573-2.9007s-.5048-1.9478-1.1483-2.7214c-.6434-.7736-1.5018-1.3391-2.4666-1.6249-1.2938-.383-2.6868-.2364-3.8726.4075-1.1859.6439-2.0674 1.7324-2.4507 3.0261z" />
        <path
            d="m80.8863 66.9784c-1.8147.9789-3.4171 2.3082-4.7144 3.9108s-2.2637 3.4467-2.8432 5.4255c-.1127.3754-.1501.7693-.1102 1.1592s.1565.7681.3429 1.1129.4391.6493.7435.8962c.3043.247.6545.4313 1.0303.5426s.7699.1473 1.1597.106c.3897-.0414.7675-.1593 1.1116-.347.344-.1876.6477-.4414.8935-.7467s.4289-.6561.5388-1.0323c.363-1.2264.964-2.3692 1.7687-3.3632s1.7973-1.8198 2.9212-2.4301c1.1239-.6104 2.357-.9933 3.6289-1.127s2.5577-.0155 3.7839.3479c.3755.1126.7694.15 1.1593.1101s.7681-.1565 1.1129-.3429c.3447-.1864.6493-.439.8962-.7434s.4313-.6546.5426-1.0304.1473-.7699.1059-1.1597c-.0413-.3897-.1592-.7675-.3469-1.1116-.1877-.344-.4414-.6477-.7467-.8935s-.6561-.4289-1.0323-.5388c-1.9753-.5914-4.0483-.7849-6.0989-.5694s-4.0381.8357-5.8473 1.8248z" />
        <path
            d="m76.2067 58.3613c-2.9485 1.5908-5.5523 3.7506-7.6605 6.3545-2.1081 2.6039-3.6789 5.6001-4.6213 8.8152-.2242.7572-.1385 1.5725.2384 2.2665s1.014 1.2099 1.7712 1.4341c.7572.2243 1.5725.1385 2.2665-.2384.694-.3768 1.2099-1.0139 1.4341-1.7712.7286-2.4611 1.9349-4.7546 3.5499-6.7496 1.6151-1.9949 3.6073-3.6522 5.8628-4.8771 2.2556-1.2249 4.7304-1.9935 7.2831-2.2619s5.1332-.0313 7.5942.6977c.3754.1127.7694.1501 1.1593.1102.3899-.04.7681-.1565 1.1129-.3429.3447-.1864.6493-.4391.8962-.7435s.4313-.6545.5426-1.0303c.1113-.3759.1473-.7699.1059-1.1597-.0413-.3897-.1592-.7675-.3469-1.1116s-.4414-.6477-.7467-.8935-.6561-.429-1.0324-.5389c-3.2094-.9604-6.5774-1.2745-9.909-.9243-3.3317.3502-6.5607 1.3579-9.5003 2.9647z" />
        <path
            d="m98.4081 46.8977c-4.4484-1.3177-9.1128-1.7462-13.7269-1.261-4.6141.4851-9.0873 1.8744-13.1644 4.0885s-7.6781 5.2096-10.5974 8.8156c-2.9193 3.6059-5.0996 7.7515-6.4166 12.2002-.1126.3754-.15.7694-.1101 1.1593s.1565.7681.3429 1.1128c.1864.3448.439.6494.7434.8963s.6546.4313 1.0304.5426c.3758.1112.7699.1473 1.1596.1059.3898-.0414.7676-.1593 1.1117-.3469.344-.1877.6477-.4415.8935-.7468s.4289-.6561.5388-1.0323c1.0948-3.6986 2.9075-7.1454 5.3346-10.1434 2.427-2.998 5.4209-5.4885 8.8106-7.3293s7.1088-2.9958 10.9449-3.3991c3.8362-.4032 7.7142-.0469 11.4125 1.0488.7562.2203 1.5687.1322 2.26-.2451s1.2054-1.013 1.4284-1.7681c.224-.7551.14-1.5681-.234-2.2611-.3745-.693-1.0078-1.2096-1.7619-1.4369z" />
    </g>
</svg>
