<svg fill="none" height="280" viewBox="0 0 280 280" width="280" xmlns="http://www.w3.org/2000/svg">
    <path
        d="m46.3261 209.322c7.406 18.073 19.4814 21.836 27.972 18.073 16.4202-7.275 59.0739-15.403 102.8809 3.704 58.02 25.307 70.365-12.874 51.848-51.495s-24.794-77.678-3.447-99.1956c21.347-21.5178-6.588-55.179-56.196-20.1399-32.059 22.6436-55.586 17.6013-68.22 11.2-11.9075-6.0331-25.1498-12.3402-37.5565-7.4157-15.0546 5.9758-20.986 18.9318 1.918 47.8752 32.4583 41.015-35.802 56.884-19.1994 97.394z"
        fill="#dee9ff" />
    <path
        d="m214.055 84.5613c-.198.2497-.419.4794-.661.686l-17.305 14.9767-12.917 39.232-36.009 26.313s-6.135 5.14-11.736 5.617c-1.254.438-5.052 1.916-7.156 4.2-.678.736-5.997 16.445-14.247 38.66-.413 1.112-1.226 2.029-2.281 2.572-1.054.542-2.274.671-3.418.361-10.3096-2.798-33.4006-8.959-44.387-13.121-.677-.256-1.2811-.674-1.7594-1.217-.4782-.543-.8161-1.196-.9841-1.9s-.1609-1.438.0206-2.139c.1814-.7.5318-1.346 1.0204-1.88 12.6243-13.799 39.1665-45.384 39.1665-45.384l1.8-3.74s11.339-35.427 15.048-37.73c1.402-1.523 9.47-13.3327 12.644-21.5714.722-1.199 4.068-6.1891 6.871-10.4976 1.986-3.08 3.71-5.82 4.004-6.6026.063-.1793.169-.3406.308-.4698 0 0-.008-.0025.003-.009 1.337-1.397 5.775-1.0815 5.99 4.2223.241 5.8506-5.02 17.9875-6.079 18.3181-.536 1.2908-2.058 8.243-5.036 14.129-.257.89-.64 3.188 1.872 2.631 2.514-.567 60.669-27.9637 60.669-27.9637l7.213-4.531c1.062-.6875 2.326-.9956 3.586-.8743 1.492.1716 2.859.9146 3.815 2.073 2.058 2.3848.714 4.6759-.055 5.6393z"
        fill="#699cff" />
    <path
        d="m140.705 78.9615c-1.039.0955-2.1-.4029-2.94-.9632 1.986-3.08 3.71-5.82 4.004-6.6026.063-.1793.169-.3406.309-.4698 2.393 2.8581-1.086 7.7424-1.373 8.0356z"
        fill="#d4e5ff" />
    <path
        d="m200.134 72.6463-42.617-12.2835c-2.971-.8566-6.075.8581-6.931 3.8299l-25.788 89.4663c-.857 2.971.858 6.075 3.83 6.932l42.616 12.283c2.972.857 6.075-.858 6.932-3.83l25.787-89.4658c.857-2.9718-.858-6.0753-3.829-6.9319z"
        fill="#0e84e5" />
    <path
        d="m197.893 74.887-39.672-11.4351c-2.229-.6424-4.556.6436-5.199 2.8725l-25.027 86.8266c-.642 2.229.644 4.557 2.873 5.199l39.672 11.435c2.229.642 4.557-.644 5.199-2.872l25.027-86.8271c.642-2.2289-.644-4.5565-2.873-5.1989z"
        fill="#d4e5ff" />
    <path
        d="m199.924 104.157-7.153-.057c-3.538-.027-6.428 2.818-6.456 6.356s2.817 6.428 6.355 6.456l7.153.057c3.537.028 6.428-2.818 6.456-6.356s-2.818-6.428-6.355-6.456z"
        fill="#699cff" />
    <path
        d="m197.444 117.398-9.056-.071c-2.869-.023-5.213 2.284-5.236 5.153s2.285 5.213 5.154 5.236l9.056.071c2.869.023 5.213-2.284 5.235-5.153.023-2.869-2.285-5.213-5.153-5.236z"
        fill="#699cff" />
    <path
        d="m191.405 128.765-5.351-.042c-2.169-.017-3.94 1.727-3.957 3.896-.018 2.168 1.727 3.94 3.895 3.957l5.351.042c2.168.017 3.94-1.727 3.957-3.895.017-2.169-1.727-3.94-3.895-3.958z"
        fill="#699cff" />
    <path
        d="m188.256 130.186-3.126-.024c-.541-.004-.983.431-.988.972l-.022 2.797c-.004.541.431.983.972.988l3.127.024c.541.004.983-.431.987-.972l.022-2.797c.005-.541-.431-.983-.972-.988z"
        fill="#d4e5ff" />
    <path
        d="m191.426 119.792-3.502-.028c-1.16-.009-2.108.924-2.117 2.084l-.013 1.694c-.009 1.159.924 2.107 2.083 2.116l3.503.028c1.159.009 2.107-.924 2.116-2.084l.014-1.694c.009-1.159-.924-2.107-2.084-2.116z"
        fill="#d4e5ff" />
    <path
        d="m195.913 106.356-2.828-.023c-1.547-.012-2.81 1.232-2.822 2.778l-.018 2.224c-.012 1.546 1.232 2.81 2.778 2.822l2.828.022c1.546.013 2.81-1.231 2.822-2.777l.018-2.224c.012-1.547-1.232-2.81-2.778-2.822z"
        fill="#d4e5ff" />
    <g fill="#699cff">
        <path
            d="m90.289 133.069c-.2017.623-.2142 1.291-.0358 1.921.1783.63.5394 1.193 1.0377 1.618.4982.424 1.1112.692 1.7615.768.6502.077 1.3085-.042 1.8915-.339.5831-.298 1.0648-.762 1.3841-1.334.3194-.571.4621-1.225.4101-1.877-.052-.653-.2963-1.276-.7021-1.789-.4058-.514-.9548-.896-1.5777-1.098-.8352-.27-1.7437-.198-2.5256.202-.7818.399-1.3731 1.092-1.6437 1.928z" />
        <path
            d="m88.7931 124.993c-1.1964.607-2.2606 1.445-3.1308 2.466-.8701 1.021-1.5291 2.205-1.9386 3.482-.1583.489-.116 1.021.1177 1.478.2337.458.6396.804 1.1285.962.4888.159 1.0205.116 1.4781-.117.4576-.234.8036-.64.9619-1.129.2563-.791.666-1.525 1.2058-2.158.5397-.633 1.199-1.154 1.94-1.533.741-.378 1.5494-.607 2.3788-.673.8295-.066 1.6638.032 2.4554.289.4888.158 1.0205.116 1.4781-.118s.8036-.64.962-1.128c.1583-.489.1159-1.021-.1177-1.479-.2337-.457-.6397-.803-1.1285-.962-1.275-.417-2.6201-.577-3.9574-.47-1.3373.106-2.6402.477-3.8333 1.09z" />
        <path
            d="m85.8914 119.311c-1.9441.986-3.6732 2.348-5.0873 4.007s-2.485 3.582-3.1509 5.658c-.0798.242-.1109.498-.0916.752.0193.255.0888.503.2043.731.1155.227.2748.43.4688.596.194.165.4189.291.6617.37.2428.078.4987.108.7531.088.2543-.021.5021-.091.7291-.208s.4288-.277.5936-.472c.1649-.195.2896-.42.3671-.663.5144-1.589 1.3368-3.061 2.4201-4.332s2.4064-2.316 3.8936-3.075c1.4873-.76 3.1096-1.219 4.7743-1.352 1.6647-.132 3.3393.064 4.928.579.4888.158 1.0205.116 1.4781-.118.4575-.233.8036-.639.9619-1.128s.1159-1.021-.1178-1.478c-.2337-.458-.6396-.804-1.1285-.962-2.0716-.678-4.257-.937-6.4297-.764s-4.2895.775-6.2279 1.771z" />
        <path
            d="m100.52 112.221c-2.8715-.93-5.8982-1.286-8.9073-1.046-3.009.239-5.9414 1.069-8.6297 2.442s-5.0797 3.262-7.0379 5.559c-1.9581 2.298-3.4446 4.958-4.3744 7.83-.0784.242-.1083.497-.0881.751.0202.253.0901.5.2058.727s.275.428.4686.593.4178.291.6598.369c.2421.078.4972.108.7508.088s.5008-.09.7274-.206c.2265-.115.4281-.275.5932-.468.165-.194.2903-.418.3687-.66.773-2.388 2.0089-4.6 3.6369-6.51s3.6163-3.48 5.8514-4.622c2.2351-1.141 4.6731-1.831 7.1749-2.03s5.0182.096 7.4057.87c.4889.158 1.0212.116 1.4782-.118.458-.234.804-.64.962-1.128.159-.489.116-1.021-.117-1.479-.234-.458-.64-.804-1.129-.962z" />
    </g>
    <path
        d="m224.38 41.8482c-4.545-2.7756-8.277-1.3564-9.388.462-.802 1.3134-.061 2.5979.848 3.1531 1.818 1.1102 2.661-1.9349 6.095.1623 1.684 1.028 2.578 2.5914 1.632 4.1402-1.111 1.8183-3.633 1.7108-5.32 1.9751-1.491.2457-3.613.845-5.381 3.7408-1.07 1.751-.907 2.5438.473 3.3869 1.65 1.0073 2.439.4722 2.83-.168 1.069-1.751 1.72-2.7407 4.456-3.0578 1.341-.1519 5.601-.6942 7.534-3.8593 1.933-3.1652.531-7.3036-3.779-9.9353z"
        fill="#0e84e5" />
    <path
        d="m211.954 61.2122c-.34-.2079-.719-.3468-1.113-.4086s-.796-.0453-1.184.0484c-.388.0938-.754.263-1.076.498s-.595.5312-.803.8717-.347.7186-.409 1.1128c-.062.3941-.045.7966.048 1.1844.094.3878.263.7533.498 1.0757s.532.5954.872.8033c.688.42 1.514.5496 2.297.3602.784-.1893 1.46-.682 1.88-1.3696.419-.6877.549-1.514.36-2.2972-.19-.7832-.682-1.4591-1.37-1.8791z"
        fill="#0e84e5" />
</svg>
