<svg fill="none" height="280" viewBox="0 0 280 280" width="280" xmlns="http://www.w3.org/2000/svg">
    <path
        d="m226.018 106.097s-28.928 24.384 1.873 78.858c27.354 48.378-38.014 67.466-65.743 61.252-35.921-8.05-55.263-54.874-83.3463-40.871-28.0829 14.003-53.4406-53.17-12.4968-76.662 50.9331-29.2232 19.376-47.6966 24.5458-69.9077 3.71-15.941 50.3353-39.5908 74.2113-10.7348 20.092 24.2817 30.557 16.0251 40.166 13.0831 13.86-4.2434 43.085 20.2971 20.79 44.9824z"
        fill="#dee9ff" />
    <path
        d="m196.757 70.3357-62.421-10.2285c-4.578-.7501-8.897 2.353-9.648 6.9311l-21.59 131.7577c-.75 4.578 2.353 8.898 6.931 9.648l62.421 10.228c4.578.75 8.897-2.353 9.647-6.931l21.591-131.7576c.75-4.5781-2.353-8.8976-6.931-9.6477z"
        fill="#0e84e5" />
    <g fill="#699cff">
        <path
            d="m194.704 74.0491-59.608-9.7676c-3.052-.5001-5.932 1.5687-6.432 4.6208l-21.203 129.3957c-.5 3.053 1.568 5.932 4.621 6.432l59.607 9.768c3.052.5 5.932-1.569 6.432-4.621l21.203-129.3961c.5-3.0521-1.568-5.9317-4.62-6.4318z" />
        <path
            d="m76.9556 170.342c-.2439.848-.2311 1.748.0368 2.588s.7789 1.582 1.4684 2.132c.6894.549 1.5264.882 2.405.956s1.7594-.114 2.5311-.541c.7716-.427 1.3994-1.072 1.804-1.856.4046-.783.5677-1.669.4689-2.545s-.4553-1.704-1.0242-2.377c-.569-.674-1.3249-1.164-2.1722-1.408-1.1362-.327-2.3558-.189-3.3906.383-1.0347.572-1.7999 1.532-2.1272 2.668z" />
        <path
            d="m86.9298 161.043c-.0112.184-.0436.367-.0966.544-.0949.33-.2541.638-.4685.906-.2143.268-.4797.491-.7806.656-.2992.167-.6285.272-.9689.31-.3403.038-.6848.008-1.0132-.089-1.0773-.311-2.2053-.406-3.3194-.28-1.1141.125-2.1925.47-3.1734 1.012-.981.543-1.8453 1.274-2.5434 2.152-.6981.877-1.2164 1.883-1.5252 2.961-.095.33-.2541.637-.4679.905-.2138.267-.4783.49-.7784.656-.606.334-1.32.414-1.9849.222-.665-.192-1.2264-.64-1.5608-1.246s-.4144-1.32-.2223-1.985c.4944-1.737 1.3291-3.359 2.4556-4.771s2.5224-2.586 4.1066-3.454c1.1873-.659 2.4645-1.141 3.791-1.432z" />
        <path
            d="m67.1201 154.259 6.221 2.133c-.1332.058-.2628.125-.3883.198-1.9722 1.082-3.7101 2.545-5.1128 4.304-1.4028 1.758-2.4426 3.778-3.0592 5.941-.0929.331-.2503.64-.4632.91s-.477.495-.7772.662c-.3002.168-.6305.274-.972.313-.3414.039-.6872.011-1.0175-.084s-.6386-.255-.9071-.469c-.2685-.215-.4918-.48-.6573-.782-.1654-.301-.2697-.632-.3067-.974-.0371-.341-.0062-.687.0909-1.017 1.2437-4.38 3.8106-8.269 7.3494-11.135z" />
        <path
            d="m89.2057 153.331c-.1928.664-.6402 1.225-1.2447 1.56-.6046.336-1.3172.418-1.9825.231-1.2067-.351-2.4483-.568-3.7024-.647l-9.9382-3.398c4.7576-2.085 10.0972-2.431 15.0843-.977.6643.193 1.2251.641 1.5594 1.247.3342.606.4148 1.319.2241 1.984z" />
        <path
            d="m57.9717 151.133 5.4508 1.86c-3.2828 3.137-5.6694 7.092-6.9134 11.459-.0948.33-.254.638-.4683.906-.2144.268-.4796.491-.7806.656-.2979.168-.6264.275-.966.314-.3397.039-.6838.01-1.0121-.086-.3295-.094-.6373-.252-.9057-.465s-.4921-.477-.6584-.777c-.1662-.299-.2717-.629-.3105-.969-.0387-.341-.0099-.686.0847-1.015 1.251-4.393 3.4644-8.452 6.4795-11.883z" />
        <path
            d="m91.5894 145.06c-.1932.664-.6417 1.224-1.2474 1.559-.6056.334-1.319.414-1.984.224-3.2468-.944-6.6484-1.234-10.008-.854-3.3597.379-6.6108 1.421-9.5651 3.066-.2981.167-.588.33-.8666.515l-6.1123-2.096c3.8732-3.116 8.4386-5.255 13.3114-6.238 4.8729-.982 9.9106-.779 14.6886.592.6644.193 1.2251.642 1.5593 1.247.3343.606.4149 1.32.2241 1.985z" />
        <path
            d="m51.9811 151.492h-.0001c-.4201 1.227.2344 2.563 1.462 2.983l33.708 11.536c1.2276.42 2.5632-.234 2.9833-1.462h.0001c.4201-1.227-.2345-2.563-1.462-2.983l-33.708-11.536c-1.2276-.42-2.5632.234-2.9833 1.462z" />
    </g>
    <path
        d="m230.227 60.0536c-4.534-1.8944-7.739-.0771-8.497 1.7367-.547 1.3102.308 2.3778 1.215 2.7568 1.814.7577 2.156-2.1375 5.581-.7062 1.68.7016 2.715 2.002 2.069 3.5472-.758 1.814-3.074 2.0695-4.575 2.5469-1.325.4329-3.177 1.2769-4.384 4.1657-.729 1.7466-.47 2.4469.907 3.0223 1.646.6875 2.29.0889 2.557-.5494.73-1.7467 1.185-2.7405 3.635-3.413 1.202-.3265 5.011-1.4181 6.33-4.5755 1.32-3.1574-.539-6.7353-4.838-8.5315z"
        fill="#0e84e5" />
    <path
        d="m221.608 79.4548c-.684-.2767-1.45-.2725-2.131.0117s-1.222.8255-1.507 1.5064c-.284.6809-.289 1.4465-.012 2.1308.276.6842.811 1.2319 1.489 1.5241.685.2819 1.454.2811 2.138-.0022.685-.2833 1.229-.826 1.515-1.5095.285-.6836.289-1.4524.009-2.1384-.279-.6861-.819-1.2336-1.501-1.5229z"
        fill="#0e84e5" />
    <path
        d="m144.943 120.276c.409-2.519-.318-4.733-1.624-4.945s-2.697 1.658-3.106 4.177.318 4.733 1.624 4.945 2.697-1.658 3.106-4.177z"
        fill="#fff" />
    <path
        d="m172.179 124.747c.413-2.544-.31-4.778-1.617-4.991-1.306-.212-2.7 1.679-3.113 4.222-.413 2.544.311 4.779 1.617 4.991s2.7-1.678 3.113-4.222z"
        fill="#fff" />
    <path
        d="m161.061 146.677c-.095 0-.189-.02-.276-.057s-.166-.092-.231-.161l-.985-1.037c-1.58-1.659-3.662-2.753-5.925-3.114-2.262-.36-4.581.032-6.599 1.118l-1.258.68c-.081.043-.17.071-.261.08-.092.01-.184.001-.272-.025-.088-.027-.17-.07-.242-.128-.071-.058-.13-.13-.174-.211-.044-.08-.071-.169-.08-.261-.01-.091-.001-.184.025-.272.027-.088.07-.17.128-.241s.13-.131.21-.174l1.259-.68c2.288-1.231 4.918-1.677 7.484-1.268 2.567.409 4.927 1.65 6.72 3.531l.985 1.037c.094.1.157.224.181.359s.008.274-.046.4c-.054.125-.143.233-.257.308-.115.075-.249.115-.386.115z"
        fill="#fff" />
</svg>
