<svg fill="none" height="280" viewBox="0 0 280 280" width="280" xmlns="http://www.w3.org/2000/svg">
    <path
        d="m52.6631 127.029s38.7709-1.552 47.1494-65.2834c7.4405-56.59931 72.8185-30.8373 91.7165-8.2755 24.481 29.227 11.431 79.5039 43.1 85.8549 31.67 6.351 10.989 76.967-37.083 70.208-59.8-8.408-45.332 26.536-63.284 41.326-12.883 10.616-65.7105.397-67.4712-38.136-1.4816-32.426-15.1593-32.323-24.8542-36-13.9822-5.302-22.7925-43.706 10.7265-49.694z"
        fill="#dee9ff" />
    <path d="m184.462 197.807-38.091-37.639-7.543 7.633 38.092 37.639z" fill="#699cff" />
    <path
        d="m199.013 207.92-29.635-29.283c-.165-.163-.431-.161-.594.004l-11.216 11.351c-.163.165-.162.431.003.594l29.635 29.283c.165.163.431.162.594-.003l11.217-11.352c.163-.165.161-.431-.004-.594z"
        fill="#0e84e5" />
    <path
        d="m112.611 179.097c26.205 0 47.449-21.244 47.449-47.449 0-26.206-21.244-47.4498-47.449-47.4498-26.2059 0-47.4497 21.2438-47.4497 47.4498 0 26.205 21.2438 47.449 47.4497 47.449z"
        fill="#0e84e5" />
    <path
        d="m112.611 171.355c21.929 0 39.707-17.777 39.707-39.707s-17.778-39.7073-39.707-39.7073c-21.9299 0-39.7074 17.7773-39.7074 39.7073s17.7775 39.707 39.7074 39.707z"
        fill="#d4e5ff" />
    <g fill="#418df9">
        <path
            d="m192.83 88.7531c-11.13-3.6077-23.158 2.4939-26.781 13.6699-3.607 11.13 2.494 23.158 13.67 26.78s23.173-2.539 26.781-13.67c3.608-11.13-2.54-23.1724-13.67-26.7799zm-3.359 10.3614c1.246.4038 2.344 1.1685 3.155 2.1975.81 1.028 1.297 2.275 1.398 3.58.102 1.306-.187 2.612-.829 3.754-.643 1.141-1.609 2.066-2.778 2.657-1.168.591-2.486.822-3.786.663s-2.524-.7-3.516-1.555c-.991-.855-1.707-1.986-2.055-3.248-.349-1.263-.314-2.6.098-3.843 1.115-3.4387 4.874-5.3201 8.313-4.2055zm-8.403 25.9265c-3.698-1.193-6.866-3.634-8.962-6.905 3.923-2.229 8.024-2.85 11.734-1.647s6.727 4.08 8.537 8.217c-3.617 1.42-7.615 1.538-11.309.335z" />
        <path
            d="m100.191 190.176c-1.933.987-3.5302 2.525-4.5894 4.419-1.0592 1.895-1.5328 4.061-1.361 6.225.1719 2.163.9815 4.227 2.3265 5.931s3.165 2.97 5.2299 3.639c2.065.67 4.281.711 6.37.121 2.089-.591 3.955-1.788 5.364-3.439 1.408-1.652 2.295-3.684 2.549-5.839.253-2.156-.138-4.338-1.125-6.272-1.326-2.59-3.624-4.548-6.392-5.445-2.768-.898-5.779-.66-8.372.66zm2.556 5.008c.602-.308 1.282-.429 1.954-.35.671.08 1.304.357 1.817.796.514.44.885 1.022 1.067 1.673.183.651.167 1.342-.044 1.984-.21.643-.607 1.208-1.14 1.624-.532.417-1.176.666-1.851.715-.674.05-1.348-.101-1.936-.435-.587-.334-1.063-.835-1.366-1.439-.401-.806-.469-1.737-.188-2.592.28-.855.887-1.566 1.687-1.977zm6.396 12.53c-1.785.914-3.832 1.179-5.791.75.618-2.245 1.888-3.968 3.682-4.883 1.793-.916 3.944-.966 6.115-.117-.802 1.838-2.218 3.34-4.006 4.249z" />
    </g>
</svg>
