<svg fill="none" height="60" viewBox="0 0 53 60" width="53" xmlns="http://www.w3.org/2000/svg">
    <path
        d="M42.4 6C36.5549 6 31.8 10.71 31.8 16.5C31.8 21.162 34.9043 25.077 39.1594 26.445C38.7173 29.241 37.5028 31.545 35.4343 33.414C29.5407 38.733 18.6954 39.219 13.6286 39.135V20.511C17.9897 19.209 21.2 15.24 21.2 10.5C21.2 4.71 16.4451 0 10.6 0C4.75486 0 0 4.71 0 10.5C0 15.24 3.21029 19.209 7.57143 20.511V39.489C3.21029 40.791 0 44.76 0 49.5C0 55.29 4.75486 60 10.6 60C16.4451 60 21.2 55.29 21.2 49.5C21.2 47.847 20.776 46.305 20.0885 44.913C26.3274 44.355 34.1926 42.642 39.4986 37.863C42.821 34.872 44.7411 31.071 45.265 26.559C49.714 25.314 53 21.3 53 16.5C53 10.71 48.2451 6 42.4 6ZM6.05714 10.5C6.05714 8.019 8.09537 6 10.6 6C13.1046 6 15.1429 8.019 15.1429 10.5C15.1429 12.981 13.1046 15 10.6 15C8.09537 15 6.05714 12.981 6.05714 10.5ZM10.6 54C8.09537 54 6.05714 51.981 6.05714 49.5C6.05865 48.3169 6.53048 47.1819 7.37051 46.3408C8.21054 45.4997 9.35116 45.0202 10.5455 45.006L10.9392 45.036C11.5334 45.0581 12.1174 45.1958 12.6578 45.4415C13.1982 45.6871 13.6846 46.0357 14.089 46.4675C14.4934 46.8993 14.808 47.4058 15.0148 47.958C15.2216 48.5102 15.3166 49.0974 15.2943 49.686C15.272 50.2746 15.1329 50.8531 14.885 51.3884C14.637 51.9237 14.285 52.4055 13.8491 52.806C13.4132 53.2066 12.9019 53.5183 12.3444 53.7231C11.7869 53.928 11.1942 54.0221 10.6 54ZM42.4 21C39.8954 21 37.8571 18.981 37.8571 16.5C37.8571 14.019 39.8954 12 42.4 12C44.9046 12 46.9429 14.019 46.9429 16.5C46.9429 18.981 44.9046 21 42.4 21Z"
        fill="white" opacity="0.2" />
</svg>
