<svg width="64" height="60" viewBox="0 0 64 60" fill="none" xmlns="http://www.w3.org/2000/svg">
<path opacity="0.2" fill-rule="evenodd" clip-rule="evenodd" d="M15.998 7C15.998 3.136 19.1341 0 22.9983 0H45.3432C47.1993 0 48.9794 0.736 50.2914 2.052L61.9479 13.708C63.264 15.02 64 16.8 64 18.656V53C64 54.8565 63.2625 56.637 61.9497 57.9497C60.6369 59.2625 58.8563 60 56.9997 60H20.9982C20.2025 60 19.4394 59.6839 18.8768 59.1213C18.3142 58.5587 17.9981 57.7957 17.9981 57C17.9981 56.2043 18.3142 55.4413 18.8768 54.8787C19.4394 54.3161 20.2025 54 20.9982 54H56.9997C57.2649 54 57.5193 53.8946 57.7068 53.7071C57.8944 53.5196 57.9998 53.2652 57.9998 53V24H46.9993C45.1427 24 43.3622 23.2625 42.0493 21.9497C40.7365 20.637 39.999 18.8565 39.999 17V6H22.9983C22.7331 6 22.4787 6.10536 22.2912 6.29289C22.1036 6.48043 21.9983 6.73478 21.9983 7V17C21.9983 17.7956 21.6822 18.5587 21.1196 19.1213C20.5569 19.6839 19.7938 20 18.9981 20C18.2025 20 17.4394 19.6839 16.8767 19.1213C16.3141 18.5587 15.998 17.7956 15.998 17V7ZM45.9993 6.248V17C45.9993 17.552 46.4473 18 46.9993 18H57.7517C57.7377 17.9822 57.723 17.9648 57.7077 17.948L46.0513 6.292C46.0344 6.27679 46.017 6.26212 45.9993 6.248ZM22.8783 26.88C22.3165 27.4425 22.0009 28.205 22.0009 29C22.0009 29.795 22.3165 30.5575 22.8783 31.12L28.7585 37L22.8783 42.88C22.5835 43.1546 22.3471 43.4859 22.1832 43.8538C22.0192 44.2218 21.931 44.6191 21.9239 45.0219C21.9168 45.4247 21.9909 45.8248 22.1418 46.1984C22.2927 46.5719 22.5173 46.9113 22.8021 47.1962C23.087 47.481 23.4264 47.7056 23.8 47.8565C24.1735 48.0074 24.5737 48.0815 24.9765 48.0744C25.3793 48.0673 25.7766 47.9791 26.1446 47.8151C26.5126 47.6512 26.8438 47.4147 27.1185 47.12L35.1188 39.12C35.6806 38.5575 35.9962 37.795 35.9962 37C35.9962 36.205 35.6806 35.4425 35.1188 34.88L27.1185 26.88C26.556 26.3182 25.7934 26.0026 24.9984 26.0026C24.2034 26.0026 23.4408 26.3182 22.8783 26.88ZM13.1179 31.12C13.6478 30.5513 13.9363 29.7991 13.9226 29.0219C13.9089 28.2447 13.5941 27.5032 13.0444 26.9535C12.4947 26.4039 11.7531 26.089 10.9759 26.0753C10.1987 26.0616 9.44645 26.3501 8.87773 26.88L0.877396 34.88C0.315571 35.4425 0 36.205 0 37C0 37.795 0.315571 38.5575 0.877396 39.12L8.87773 47.12C9.44645 47.6499 10.1987 47.9384 10.9759 47.9247C11.7531 47.911 12.4947 47.5961 13.0444 47.0465C13.5941 46.4968 13.9089 45.7553 13.9226 44.9781C13.9363 44.2009 13.6478 43.4487 13.1179 42.88L7.23766 37L13.1179 31.12Z" fill="white"/>
</svg>
