<svg width="85" height="60" viewBox="0 0 85 60" fill="none" xmlns="http://www.w3.org/2000/svg">
<path opacity="0.2" d="M70.8333 52.9412C74.7292 52.9412 77.8812 49.7647 77.8812 45.8824L77.9167 7.05882C77.9167 3.17647 74.7292 0 70.8333 0H14.1667C10.2708 0 7.08333 3.17647 7.08333 7.05882V45.8824C7.08333 49.7647 10.2708 52.9412 14.1667 52.9412H0C0 56.8235 3.1875 60 7.08333 60H77.9167C81.8125 60 85 56.8235 85 52.9412H70.8333ZM14.1667 7.05882H70.8333V45.8824H14.1667V7.05882ZM42.5 56.4706C40.5521 56.4706 38.9583 54.8824 38.9583 52.9412C38.9583 51 40.5521 49.4118 42.5 49.4118C44.4479 49.4118 46.0417 51 46.0417 52.9412C46.0417 54.8824 44.4479 56.4706 42.5 56.4706Z" fill="white"/>
</svg>
