<svg fill="none" height="66" viewBox="0 0 66 66" width="66" xmlns="http://www.w3.org/2000/svg">
    <g opacity="0.1">
        <path
            d="M32.967 0C14.751 0 0 14.784 0 33C0 51.216 14.751 66 32.967 66C51.216 66 66 51.216 66 33C66 14.784 51.216 0 32.967 0ZM33 59.4C18.414 59.4 6.6 47.586 6.6 33C6.6 18.414 18.414 6.6 33 6.6C47.586 6.6 59.4 18.414 59.4 33C59.4 47.586 47.586 59.4 33 59.4Z"
            fill="white" />
        <path d="M34.65 16.5H29.7V36.3L47.025 46.695L49.5 42.636L34.65 33.825V16.5Z" fill="white" />
    </g>
</svg>
